<mxfile host="app.diagrams.net" modified="2023-05-20T13:54:27.621Z" agent="Mozilla/5.0 (X11; Linux x86_64) AppleWebKit/537.36 (KHTML, like Gecko) Chrome/104.0.5112.114 YaBrowser/22.9.1.1110 (beta) Yowser/2.5 Safari/537.36" etag="SZijJLnkBmw_3FAtYy0-" version="21.2.9" type="device">
  <diagram id="DedFYuknbq_vAPVtTDtG" name="Page-1">
    <mxGraphModel dx="42" dy="473" grid="1" gridSize="10" guides="1" tooltips="1" connect="1" arrows="1" fold="1" page="1" pageScale="1" pageWidth="827" pageHeight="1169" math="0" shadow="0">
      <root>
        <mxCell id="0" />
        <mxCell id="1" parent="0" />
        <mxCell id="x5uXmW15WvEP2qOI-JBr-44" value="EEPROMVar" style="swimlane;fontStyle=1;align=center;verticalAlign=top;childLayout=stackLayout;horizontal=1;startSize=26;horizontalStack=0;resizeParent=1;resizeParentMax=0;resizeLast=0;collapsible=1;marginBottom=0;" vertex="1" parent="1">
          <mxGeometry x="880" y="40" width="390" height="200" as="geometry" />
        </mxCell>
        <mxCell id="x5uXmW15WvEP2qOI-JBr-45" value="- dataAddr: uint16_t&#xa;- data: T" style="text;strokeColor=none;fillColor=none;align=left;verticalAlign=top;spacingLeft=4;spacingRight=4;overflow=hidden;rotatable=0;points=[[0,0.5],[1,0.5]];portConstraint=eastwest;fontStyle=0" vertex="1" parent="x5uXmW15WvEP2qOI-JBr-44">
          <mxGeometry y="26" width="390" height="34" as="geometry" />
        </mxCell>
        <mxCell id="x5uXmW15WvEP2qOI-JBr-46" value="" style="line;strokeWidth=1;fillColor=none;align=left;verticalAlign=middle;spacingTop=-1;spacingLeft=3;spacingRight=3;rotatable=0;labelPosition=right;points=[];portConstraint=eastwest;" vertex="1" parent="x5uXmW15WvEP2qOI-JBr-44">
          <mxGeometry y="60" width="390" height="8" as="geometry" />
        </mxCell>
        <mxCell id="x5uXmW15WvEP2qOI-JBr-47" value="+ EEPROMVar&lt;T&gt;(path:const char*, default_value: T)&#xa;+ Update(T new_value): void&#xa;+ Update(): void&#xa;+ UpdateNow(T new_value): void&#xa;+ UpdateNow(): void&#xa;+ Data(): T&amp;&#xa;+ operator=(new_value: const T): EEPROMVar&lt;T&gt;&amp;&#xa;+ operator T&amp;(): T&amp;" style="text;strokeColor=none;fillColor=none;align=left;verticalAlign=top;spacingLeft=4;spacingRight=4;overflow=hidden;rotatable=0;points=[[0,0.5],[1,0.5]];portConstraint=eastwest;" vertex="1" parent="x5uXmW15WvEP2qOI-JBr-44">
          <mxGeometry y="68" width="390" height="132" as="geometry" />
        </mxCell>
        <mxCell id="x5uXmW15WvEP2qOI-JBr-48" value="T" style="rounded=0;whiteSpace=wrap;html=1;dashed=1;" vertex="1" parent="1">
          <mxGeometry x="1253.5" y="30" width="31" height="20" as="geometry" />
        </mxCell>
      </root>
    </mxGraphModel>
  </diagram>
</mxfile>
